<?xml version="1.0" encoding="utf-8"?><svg xmlns="http://www.w3.org/2000/svg" xmlns:xlink="http://www.w3.org/1999/xlink"><symbol viewBox="0 0 320 512" id="angle-double-down" xmlns="http://www.w3.org/2000/svg"><path d="M143 256.3L7 120.3c-9.4-9.4-9.4-24.6 0-33.9l22.6-22.6c9.4-9.4 24.6-9.4 33.9 0l96.4 96.4 96.4-96.4c9.4-9.4 24.6-9.4 33.9 0L313 86.3c9.4 9.4 9.4 24.6 0 33.9l-136 136c-9.4 9.5-24.6 9.5-34 .1zm34 192l136-136c9.4-9.4 9.4-24.6 0-33.9l-22.6-22.6c-9.4-9.4-24.6-9.4-33.9 0L160 352.1l-96.4-96.4c-9.4-9.4-24.6-9.4-33.9 0L7 278.3c-9.4 9.4-9.4 24.6 0 33.9l136 136c9.4 9.5 24.6 9.5 34 .1z"/></symbol><symbol viewBox="0 0 448 512" id="angle-double-left" xmlns="http://www.w3.org/2000/svg"><path d="M223.7 239l136-136c9.4-9.4 24.6-9.4 33.9 0l22.6 22.6c9.4 9.4 9.4 24.6 0 33.9L319.9 256l96.4 96.4c9.4 9.4 9.4 24.6 0 33.9L393.7 409c-9.4 9.4-24.6 9.4-33.9 0l-136-136c-9.5-9.4-9.5-24.6-.1-34zm-192 34l136 136c9.4 9.4 24.6 9.4 33.9 0l22.6-22.6c9.4-9.4 9.4-24.6 0-33.9L127.9 256l96.4-96.4c9.4-9.4 9.4-24.6 0-33.9L201.7 103c-9.4-9.4-24.6-9.4-33.9 0l-136 136c-9.5 9.4-9.5 24.6-.1 34z"/></symbol><symbol viewBox="0 0 448 512" id="angle-double-right" xmlns="http://www.w3.org/2000/svg"><path d="M224.3 273l-136 136c-9.4 9.4-24.6 9.4-33.9 0l-22.6-22.6c-9.4-9.4-9.4-24.6 0-33.9l96.4-96.4-96.4-96.4c-9.4-9.4-9.4-24.6 0-33.9L54.3 103c9.4-9.4 24.6-9.4 33.9 0l136 136c9.5 9.4 9.5 24.6.1 34zm192-34l-136-136c-9.4-9.4-24.6-9.4-33.9 0l-22.6 22.6c-9.4 9.4-9.4 24.6 0 33.9l96.4 96.4-96.4 96.4c-9.4 9.4-9.4 24.6 0 33.9l22.6 22.6c9.4 9.4 24.6 9.4 33.9 0l136-136c9.4-9.2 9.4-24.4 0-33.8z"/></symbol><symbol viewBox="0 0 320 512" id="angle-double-up" xmlns="http://www.w3.org/2000/svg"><path d="M177 255.7l136 136c9.4 9.4 9.4 24.6 0 33.9l-22.6 22.6c-9.4 9.4-24.6 9.4-33.9 0L160 351.9l-96.4 96.4c-9.4 9.4-24.6 9.4-33.9 0L7 425.7c-9.4-9.4-9.4-24.6 0-33.9l136-136c9.4-9.5 24.6-9.5 34-.1zm-34-192L7 199.7c-9.4 9.4-9.4 24.6 0 33.9l22.6 22.6c9.4 9.4 24.6 9.4 33.9 0l96.4-96.4 96.4 96.4c9.4 9.4 24.6 9.4 33.9 0l22.6-22.6c9.4-9.4 9.4-24.6 0-33.9l-136-136c-9.2-9.4-24.4-9.4-33.8 0z"/></symbol><symbol viewBox="0 0 320 512" id="angle-down" xmlns="http://www.w3.org/2000/svg"><path d="M143 352.3L7 216.3c-9.4-9.4-9.4-24.6 0-33.9l22.6-22.6c9.4-9.4 24.6-9.4 33.9 0l96.4 96.4 96.4-96.4c9.4-9.4 24.6-9.4 33.9 0l22.6 22.6c9.4 9.4 9.4 24.6 0 33.9l-136 136c-9.2 9.4-24.4 9.4-33.8 0z"/></symbol><symbol viewBox="0 0 256 512" id="angle-left" xmlns="http://www.w3.org/2000/svg"><path d="M31.7 239l136-136c9.4-9.4 24.6-9.4 33.9 0l22.6 22.6c9.4 9.4 9.4 24.6 0 33.9L127.9 256l96.4 96.4c9.4 9.4 9.4 24.6 0 33.9L201.7 409c-9.4 9.4-24.6 9.4-33.9 0l-136-136c-9.5-9.4-9.5-24.6-.1-34z"/></symbol><symbol viewBox="0 0 256 512" id="angle-right" xmlns="http://www.w3.org/2000/svg"><path d="M224.3 273l-136 136c-9.4 9.4-24.6 9.4-33.9 0l-22.6-22.6c-9.4-9.4-9.4-24.6 0-33.9l96.4-96.4-96.4-96.4c-9.4-9.4-9.4-24.6 0-33.9L54.3 103c9.4-9.4 24.6-9.4 33.9 0l136 136c9.5 9.4 9.5 24.6.1 34z"/></symbol><symbol viewBox="0 0 320 512" id="angle-up" xmlns="http://www.w3.org/2000/svg"><path d="M177 159.7l136 136c9.4 9.4 9.4 24.6 0 33.9l-22.6 22.6c-9.4 9.4-24.6 9.4-33.9 0L160 255.9l-96.4 96.4c-9.4 9.4-24.6 9.4-33.9 0L7 329.7c-9.4-9.4-9.4-24.6 0-33.9l136-136c9.4-9.5 24.6-9.5 34-.1z"/></symbol><symbol viewBox="0 0 512 512" id="at" xmlns="http://www.w3.org/2000/svg"><path d="M256 8C118.941 8 8 118.919 8 256c0 137.059 110.919 248 248 248 48.154 0 95.342-14.14 135.408-40.223 12.005-7.815 14.625-24.288 5.552-35.372l-10.177-12.433c-7.671-9.371-21.179-11.667-31.373-5.129C325.92 429.757 291.314 440 256 440c-101.458 0-184-82.542-184-184S154.542 72 256 72c100.139 0 184 57.619 184 160 0 38.786-21.093 79.742-58.17 83.693-17.349-.454-16.91-12.857-13.476-30.024l23.433-121.11C394.653 149.75 383.308 136 368.225 136h-44.981a13.518 13.518 0 00-13.432 11.993l-.01.092c-14.697-17.901-40.448-21.775-59.971-21.775-74.58 0-137.831 62.234-137.831 151.46 0 65.303 36.785 105.87 96 105.87 26.984 0 57.369-15.637 74.991-38.333 9.522 34.104 40.613 34.103 70.71 34.103C462.609 379.41 504 307.798 504 232 504 95.653 394.023 8 256 8zm-21.68 304.43c-22.249 0-36.07-15.623-36.07-40.771 0-44.993 30.779-72.729 58.63-72.729 22.292 0 35.601 15.241 35.601 40.77 0 45.061-33.875 72.73-58.161 72.73z"/></symbol><symbol viewBox="0 0 512 512" id="check" xmlns="http://www.w3.org/2000/svg"><path d="M173.898 439.404l-166.4-166.4c-9.997-9.997-9.997-26.206 0-36.204l36.203-36.204c9.997-9.998 26.207-9.998 36.204 0L192 312.69 432.095 72.596c9.997-9.997 26.207-9.997 36.204 0l36.203 36.204c9.997 9.997 9.997 26.206 0 36.204l-294.4 294.401c-9.998 9.997-26.207 9.997-36.204-.001z"/></symbol><symbol viewBox="0 0 512 512" id="chevron-circle-down" xmlns="http://www.w3.org/2000/svg"><path d="M504 256c0 137-111 248-248 248S8 393 8 256 119 8 256 8s248 111 248 248zM273 369.9l135.5-135.5c9.4-9.4 9.4-24.6 0-33.9l-17-17c-9.4-9.4-24.6-9.4-33.9 0L256 285.1 154.4 183.5c-9.4-9.4-24.6-9.4-33.9 0l-17 17c-9.4 9.4-9.4 24.6 0 33.9L239 369.9c9.4 9.4 24.6 9.4 34 0z"/></symbol><symbol viewBox="0 0 512 512" id="chevron-circle-left" xmlns="http://www.w3.org/2000/svg"><path d="M256 504C119 504 8 393 8 256S119 8 256 8s248 111 248 248-111 248-248 248zM142.1 273l135.5 135.5c9.4 9.4 24.6 9.4 33.9 0l17-17c9.4-9.4 9.4-24.6 0-33.9L226.9 256l101.6-101.6c9.4-9.4 9.4-24.6 0-33.9l-17-17c-9.4-9.4-24.6-9.4-33.9 0L142.1 239c-9.4 9.4-9.4 24.6 0 34z"/></symbol><symbol viewBox="0 0 512 512" id="chevron-circle-right" xmlns="http://www.w3.org/2000/svg"><path d="M256 8c137 0 248 111 248 248S393 504 256 504 8 393 8 256 119 8 256 8zm113.9 231L234.4 103.5c-9.4-9.4-24.6-9.4-33.9 0l-17 17c-9.4 9.4-9.4 24.6 0 33.9L285.1 256 183.5 357.6c-9.4 9.4-9.4 24.6 0 33.9l17 17c9.4 9.4 24.6 9.4 33.9 0L369.9 273c9.4-9.4 9.4-24.6 0-34z"/></symbol><symbol viewBox="0 0 512 512" id="chevron-circle-up" xmlns="http://www.w3.org/2000/svg"><path d="M8 256C8 119 119 8 256 8s248 111 248 248-111 248-248 248S8 393 8 256zm231-113.9L103.5 277.6c-9.4 9.4-9.4 24.6 0 33.9l17 17c9.4 9.4 24.6 9.4 33.9 0L256 226.9l101.6 101.6c9.4 9.4 24.6 9.4 33.9 0l17-17c9.4-9.4 9.4-24.6 0-33.9L273 142.1c-9.4-9.4-24.6-9.4-34 0z"/></symbol><symbol viewBox="0 0 448 512" id="chevron-down" xmlns="http://www.w3.org/2000/svg"><path d="M207.029 381.476L12.686 187.132c-9.373-9.373-9.373-24.569 0-33.941l22.667-22.667c9.357-9.357 24.522-9.375 33.901-.04L224 284.505l154.745-154.021c9.379-9.335 24.544-9.317 33.901.04l22.667 22.667c9.373 9.373 9.373 24.569 0 33.941L240.971 381.476c-9.373 9.372-24.569 9.372-33.942 0z"/></symbol><symbol viewBox="0 0 320 512" id="chevron-left" xmlns="http://www.w3.org/2000/svg"><path d="M34.52 239.03L228.87 44.69c9.37-9.37 24.57-9.37 33.94 0l22.67 22.67c9.36 9.36 9.37 24.52.04 33.9L131.49 256l154.02 154.75c9.34 9.38 9.32 24.54-.04 33.9l-22.67 22.67c-9.37 9.37-24.57 9.37-33.94 0L34.52 272.97c-9.37-9.37-9.37-24.57 0-33.94z"/></symbol><symbol viewBox="0 0 320 512" id="chevron-right" xmlns="http://www.w3.org/2000/svg"><path d="M285.476 272.971L91.132 467.314c-9.373 9.373-24.569 9.373-33.941 0l-22.667-22.667c-9.357-9.357-9.375-24.522-.04-33.901L188.505 256 34.484 101.255c-9.335-9.379-9.317-24.544.04-33.901l22.667-22.667c9.373-9.373 24.569-9.373 33.941 0L285.475 239.03c9.373 9.372 9.373 24.568.001 33.941z"/></symbol><symbol viewBox="0 0 448 512" id="chevron-up" xmlns="http://www.w3.org/2000/svg"><path d="M240.971 130.524l194.343 194.343c9.373 9.373 9.373 24.569 0 33.941l-22.667 22.667c-9.357 9.357-24.522 9.375-33.901.04L224 227.495 69.255 381.516c-9.379 9.335-24.544 9.317-33.901-.04l-22.667-22.667c-9.373-9.373-9.373-24.569 0-33.941L207.03 130.525c9.372-9.373 24.568-9.373 33.941-.001z"/></symbol><symbol viewBox="0 0 448 512" id="database" xmlns="http://www.w3.org/2000/svg"><path d="M448 73.143v45.714C448 159.143 347.667 192 224 192S0 159.143 0 118.857V73.143C0 32.857 100.333 0 224 0s224 32.857 224 73.143zM448 176v102.857C448 319.143 347.667 352 224 352S0 319.143 0 278.857V176c48.125 33.143 136.208 48.572 224 48.572S399.874 209.143 448 176zm0 160v102.857C448 479.143 347.667 512 224 512S0 479.143 0 438.857V336c48.125 33.143 136.208 48.572 224 48.572S399.874 369.143 448 336z"/></symbol><symbol viewBox="0 0 320 512" id="facebook-f" xmlns="http://www.w3.org/2000/svg"><path d="M279.14 288l14.22-92.66h-88.91v-60.13c0-25.35 12.42-50.06 52.24-50.06h40.42V6.26S260.43 0 225.36 0c-73.22 0-121.08 44.38-121.08 124.72v70.62H22.89V288h81.39v224h100.17V288z"/></symbol><symbol viewBox="0 0 496 512" id="globe" xmlns="http://www.w3.org/2000/svg"><path d="M336.5 160C322 70.7 287.8 8 248 8s-74 62.7-88.5 152h177zM152 256c0 22.2 1.2 43.5 3.3 64h185.3c2.1-20.5 3.3-41.8 3.3-64s-1.2-43.5-3.3-64H155.3c-2.1 20.5-3.3 41.8-3.3 64zm324.7-96c-28.6-67.9-86.5-120.4-158-141.6 24.4 33.8 41.2 84.7 50 141.6h108zM177.2 18.4C105.8 39.6 47.8 92.1 19.3 160h108c8.7-56.9 25.5-107.8 49.9-141.6zM487.4 192H372.7c2.1 21 3.3 42.5 3.3 64s-1.2 43-3.3 64h114.6c5.5-20.5 8.6-41.8 8.6-64s-3.1-43.5-8.5-64zM120 256c0-21.5 1.2-43 3.3-64H8.6C3.2 212.5 0 233.8 0 256s3.2 43.5 8.6 64h114.6c-2-21-3.2-42.5-3.2-64zm39.5 96c14.5 89.3 48.7 152 88.5 152s74-62.7 88.5-152h-177zm159.3 141.6c71.4-21.2 129.4-73.7 158-141.6h-108c-8.8 56.9-25.6 107.8-50 141.6zM19.3 352c28.6 67.9 86.5 120.4 158 141.6-24.4-33.8-41.2-84.7-50-141.6h-108z"/></symbol><symbol viewBox="0 0 576 512" id="keyboard" xmlns="http://www.w3.org/2000/svg"><path d="M528 448H48c-26.51 0-48-21.49-48-48V112c0-26.51 21.49-48 48-48h480c26.51 0 48 21.49 48 48v288c0 26.51-21.49 48-48 48zM128 180v-40c0-6.627-5.373-12-12-12H76c-6.627 0-12 5.373-12 12v40c0 6.627 5.373 12 12 12h40c6.627 0 12-5.373 12-12zm96 0v-40c0-6.627-5.373-12-12-12h-40c-6.627 0-12 5.373-12 12v40c0 6.627 5.373 12 12 12h40c6.627 0 12-5.373 12-12zm96 0v-40c0-6.627-5.373-12-12-12h-40c-6.627 0-12 5.373-12 12v40c0 6.627 5.373 12 12 12h40c6.627 0 12-5.373 12-12zm96 0v-40c0-6.627-5.373-12-12-12h-40c-6.627 0-12 5.373-12 12v40c0 6.627 5.373 12 12 12h40c6.627 0 12-5.373 12-12zm96 0v-40c0-6.627-5.373-12-12-12h-40c-6.627 0-12 5.373-12 12v40c0 6.627 5.373 12 12 12h40c6.627 0 12-5.373 12-12zm-336 96v-40c0-6.627-5.373-12-12-12h-40c-6.627 0-12 5.373-12 12v40c0 6.627 5.373 12 12 12h40c6.627 0 12-5.373 12-12zm96 0v-40c0-6.627-5.373-12-12-12h-40c-6.627 0-12 5.373-12 12v40c0 6.627 5.373 12 12 12h40c6.627 0 12-5.373 12-12zm96 0v-40c0-6.627-5.373-12-12-12h-40c-6.627 0-12 5.373-12 12v40c0 6.627 5.373 12 12 12h40c6.627 0 12-5.373 12-12zm96 0v-40c0-6.627-5.373-12-12-12h-40c-6.627 0-12 5.373-12 12v40c0 6.627 5.373 12 12 12h40c6.627 0 12-5.373 12-12zm-336 96v-40c0-6.627-5.373-12-12-12H76c-6.627 0-12 5.373-12 12v40c0 6.627 5.373 12 12 12h40c6.627 0 12-5.373 12-12zm288 0v-40c0-6.627-5.373-12-12-12H172c-6.627 0-12 5.373-12 12v40c0 6.627 5.373 12 12 12h232c6.627 0 12-5.373 12-12zm96 0v-40c0-6.627-5.373-12-12-12h-40c-6.627 0-12 5.373-12 12v40c0 6.627 5.373 12 12 12h40c6.627 0 12-5.373 12-12z"/></symbol><symbol viewBox="0 0 640 512" id="network-wired" xmlns="http://www.w3.org/2000/svg"><path d="M640 264v-16c0-8.84-7.16-16-16-16H344v-40h72c17.67 0 32-14.33 32-32V32c0-17.67-14.33-32-32-32H224c-17.67 0-32 14.33-32 32v128c0 17.67 14.33 32 32 32h72v40H16c-8.84 0-16 7.16-16 16v16c0 8.84 7.16 16 16 16h104v40H64c-17.67 0-32 14.33-32 32v128c0 17.67 14.33 32 32 32h160c17.67 0 32-14.33 32-32V352c0-17.67-14.33-32-32-32h-56v-40h304v40h-56c-17.67 0-32 14.33-32 32v128c0 17.67 14.33 32 32 32h160c17.67 0 32-14.33 32-32V352c0-17.67-14.33-32-32-32h-56v-40h104c8.84 0 16-7.16 16-16zM256 128V64h128v64H256zm-64 320H96v-64h96v64zm352 0h-96v-64h96v64z"/></symbol><symbol viewBox="0 0 32 32" id="pugc" xmlns="http://www.w3.org/2000/svg"><path d="M25.514 12.846c-.052-.938.209-1.825-.209-2.554-1.043-1.825-3.649-2.867-8.863-2.867v-.053.052c-5.735 0-8.185 1.043-9.227 2.867a5.6 5.6 0 00-.469 2.554 9.546 9.546 0 00-.261 2.45c.156 1.147.261 2.294.417 3.336.156.886 1.408 1.564 1.564 2.4.313 2.242 2.294 3.284 8.028 3.284v.261h-.1v-.261c5.213 0 7.4-1.043 7.716-3.284.1-.834 1.147-1.512 1.3-2.4.156-1.043.209-2.19.365-3.336a11.774 11.774 0 00-.261-2.449z"/><path d="M16.182 13.68a3.241 3.241 0 012.19 1.147c.73.626 1.929 1.043 2.45 1.616a4.715 4.715 0 011.408 1.981 8.9 8.9 0 01.313 2.242c0 .261.156.209.573 0a9.02 9.02 0 002.19-1.877c-.156.886-1.251 1.668-1.355 2.5-.313 2.242-2.5 3.336-7.872 3.336h.313"/><path d="M19.519 11.908c.209.678.886 3.024-.469 2.242a2.557 2.557 0 01.938 1.564 1.831 1.831 0 001.3 1.408 3.479 3.479 0 002.554-.626 2.956 2.956 0 00.678-3.284 2.43 2.43 0 00-2.137-1.616c-.983-.262-3.073-.47-2.864.312z"/><circle cx="22.178" cy="14.41" r="1.929"/><circle cx="21.656" cy="13.524" r=".521"/><path d="M19.206 14.306a17.68 17.68 0 012.711 2.346c.938 1.2.938 1.408.938 1.408l-.678.313a7.1 7.1 0 00-2.137-2.5c-1.2-.678-1.355-1.251-1.355-1.251zM16.235 13.68a3.605 3.605 0 00-2.346 1.147c-.73.626-2.033 1.043-2.5 1.616a4.806 4.806 0 00-1.46 1.981 8.9 8.9 0 00-.313 2.242c0 .261.052.313-.626 0a7.972 7.972 0 01-2.19-1.877c.156.886 1.251 1.668 1.355 2.5.313 2.19 2.5 3.284 7.872 3.284h.365"/><path d="M21.239 17.277a6.552 6.552 0 00-5.109-2.607 6.638 6.638 0 00-5.109 2.607 3.861 3.861 0 00-1.043 3.18c0 4.64 1.616 3.232 2.711 3.806a7.466 7.466 0 003.389.313 7.4 7.4 0 003.389-.313c1.095-.573 2.711.834 2.711-3.806a3.386 3.386 0 00-.939-3.18z"/><path d="M16.026 15.974a9.549 9.549 0 01-.469 2.554l.573-.156z"/><path d="M16.182 15.974a9.549 9.549 0 00.469 2.554l-.573-.156z"/><path d="M14.358 15.453c-.209-.521.573-1.355 1.825-1.355s2.033.834 1.825 1.355-1.043.678-1.825.678c-.835-.001-1.617-.157-1.825-.678z"/><path d="M16.182 15.974c0-.1.73-.1 1.147-.365 0 0-.834.261-.991.156a.656.656 0 01-.209-.365.656.656 0 01-.209.365c-.156.1-1.095-.156-1.095-.156a8.058 8.058 0 011.2.365v.417a10.492 10.492 0 00.1 2.033c.156.209.1-1.46.1-2.033a1.3 1.3 0 01-.043-.417zM16.182 18.945a3.35 3.35 0 011.616.678 3.121 3.121 0 00-1.616-1.095 3.036 3.036 0 00-1.825 1.2 3.312 3.312 0 011.825-.783zM16.078 22.8a8.9 8.9 0 01-2.4-.469c-.156-.052-.313.052-.469 0a6.172 6.172 0 01-3.18-2.137v.209c0 4.64 1.616 3.232 2.711 3.806a7.466 7.466 0 003.389.313 7.4 7.4 0 003.389-.313c1.095-.573 2.711.834 2.711-3.806v-.469A5.914 5.914 0 0119 22.282c-.156.052-.417-.052-.573-.052a7.045 7.045 0 01-2.349.57z"/><path d="M13.941 20.3s-.573 1.668-.156 2.4l-.521-.209a15.433 15.433 0 01.677-2.191zm4.379 0s.573 1.668.156 2.4l.524-.209a10.629 10.629 0 00-.68-2.191zM12.585 11.908c-.209.678-.886 3.024.469 2.242a2.557 2.557 0 00-.938 1.564 1.831 1.831 0 01-1.3 1.408 3.479 3.479 0 01-2.558-.622 2.956 2.956 0 01-.678-3.284A2.43 2.43 0 019.717 11.6c.992-.266 3.077-.474 2.868.308z"/><path d="M16.13 18.528a3.393 3.393 0 012.45 2.867v-.1a3.051 3.051 0 00-2.45-2.919 3 3 0 00-2.45 2.919v.1a3.463 3.463 0 012.45-2.867z"/><ellipse cx="16.546" cy="15.138" rx=".156" ry=".313" transform="rotate(-14.46 16.545 15.138)"/><ellipse cx="15.609" cy="15.146" rx=".313" ry=".156" transform="rotate(-72.765 15.61 15.146)"/><circle cx="10.031" cy="14.41" r="1.929"/><circle cx="10.552" cy="13.524" r=".521"/><path d="M16.7 14.41s-.521.209-.626.261a2.492 2.492 0 01-.626-.261H16.7zM12.9 14.306a17.68 17.68 0 00-2.711 2.346c-.938 1.2-.938 1.408-.938 1.408l.678.313a7.1 7.1 0 012.137-2.5c1.2-.678 1.355-1.251 1.355-1.251z"/><path d="M9.092 10.813a4.519 4.519 0 01-1.929 2.294 2.19 2.19 0 001.929-2.294zm13.816 0a4.519 4.519 0 001.929 2.294 2.19 2.19 0 01-1.929-2.294zm-3.598 3.023a5.16 5.16 0 00-3.076-1.408h.156a3.852 3.852 0 00-3.024 1.408 4.832 4.832 0 013.024-1.043 5.785 5.785 0 012.92 1.043zm-1.564-2.867a2.455 2.455 0 00-1.564-.938h.156a1.786 1.786 0 00-1.512.938 2.187 2.187 0 011.512-.678 1.894 1.894 0 011.408.678zm-7.715 6.777a2.545 2.545 0 01-1.773.209H8.05a3.68 3.68 0 01-.886-1.512 2.27 2.27 0 002.867 1.303zm12.095 0a2.545 2.545 0 001.773.209h-.209a1.749 1.749 0 001.095-1.512 2.02 2.02 0 01-2.659 1.303z"/><path d="M11.23 10.709a4.75 4.75 0 012.242.1c.938.313.209 1.564.365 1.616a2.865 2.865 0 012.242-.73c1.773.1 1.981.886 2.242.73.261-.1-.261-2.19 2.45-1.72 0 0-2.763-.73-2.659 1.251a3.675 3.675 0 00-3.858-.1s.573-1.929-3.024-1.147zM10.5 8s-2.4 2.972-2.711 4.118c-.365 1.147-.626 5.943-.938 6.621l-1.095-4.694 2.033-4.9zm11.156 0s2.4 2.972 2.711 4.118c.365 1.147.626 5.943.938 6.621l1.095-4.694-2.033-4.9z"/><path d="M21.5 8a11.617 11.617 0 013.284 4.588c.73 2.45.417 5.474.991 5.839.834.521 1.72-2.607 2.033-2.919.469-.521 2.085-1.877 2.19-2.137s-3.232-3.91-4.744-4.64C23.585 7.893 21.4 7.789 21.5 8z"/><path d="M23.69 9.3a15.379 15.379 0 012.972 8.654l1.2-2.45A16.564 16.564 0 0023.69 9.3zM10.5 8a11.617 11.617 0 00-3.284 4.588c-.73 2.45-.417 5.474-.991 5.839-.834.521-1.72-2.607-2.033-2.919-.469-.521-2.085-1.877-2.19-2.137s3.232-3.91 4.744-4.64C8.415 7.893 10.6 7.789 10.5 8z"/><path d="M8.31 9.3a15.379 15.379 0 00-2.972 8.654L4.14 15.5a16.564 16.564 0 014.17-6.2zM6.642 18.007a4.118 4.118 0 00.573 1.564c.365.365.1-.313.1-.313s-.365-.209-.313-1.72-.36.469-.36.469zm18.768 0a4.118 4.118 0 01-.573 1.564c-.365.365-.1-.313-.1-.313s.365-.209.313-1.72c-.057-1.46.36.469.36.469z"/><circle cx="13.889" cy="17.121" r=".156"/><circle cx="12.846" cy="18.216" r=".156"/><circle cx="12.533" cy="17.121" r=".156"/><circle cx="18.164" cy="17.121" r=".156"/><circle cx="19.154" cy="18.216" r=".156"/><circle cx="19.467" cy="17.121" r=".156"/></symbol><symbol viewBox="0 0 448 512" id="share-alt-square" xmlns="http://www.w3.org/2000/svg"><path d="M448 80v352c0 26.51-21.49 48-48 48H48c-26.51 0-48-21.49-48-48V80c0-26.51 21.49-48 48-48h352c26.51 0 48 21.49 48 48zM304 296c-14.562 0-27.823 5.561-37.783 14.671l-67.958-40.775a56.339 56.339 0 000-27.793l67.958-40.775C276.177 210.439 289.438 216 304 216c30.928 0 56-25.072 56-56s-25.072-56-56-56-56 25.072-56 56c0 4.797.605 9.453 1.74 13.897l-67.958 40.775C171.823 205.561 158.562 200 144 200c-30.928 0-56 25.072-56 56s25.072 56 56 56c14.562 0 27.823-5.561 37.783-14.671l67.958 40.775a56.088 56.088 0 00-1.74 13.897c0 30.928 25.072 56 56 56s56-25.072 56-56C360 321.072 334.928 296 304 296z"/></symbol><symbol viewBox="0 0 640 512" id="sitemap" xmlns="http://www.w3.org/2000/svg"><path d="M128 352H32c-17.67 0-32 14.33-32 32v96c0 17.67 14.33 32 32 32h96c17.67 0 32-14.33 32-32v-96c0-17.67-14.33-32-32-32zm-24-80h192v48h48v-48h192v48h48v-57.59c0-21.17-17.23-38.41-38.41-38.41H344v-64h40c17.67 0 32-14.33 32-32V32c0-17.67-14.33-32-32-32H256c-17.67 0-32 14.33-32 32v96c0 17.67 14.33 32 32 32h40v64H94.41C73.23 224 56 241.23 56 262.41V320h48v-48zm264 80h-96c-17.67 0-32 14.33-32 32v96c0 17.67 14.33 32 32 32h96c17.67 0 32-14.33 32-32v-96c0-17.67-14.33-32-32-32zm240 0h-96c-17.67 0-32 14.33-32 32v96c0 17.67 14.33 32 32 32h96c17.67 0 32-14.33 32-32v-96c0-17.67-14.33-32-32-32z"/></symbol><symbol viewBox="0 0 512 512" id="spinner" xmlns="http://www.w3.org/2000/svg"><path d="M304 48c0 26.51-21.49 48-48 48s-48-21.49-48-48 21.49-48 48-48 48 21.49 48 48zm-48 368c-26.51 0-48 21.49-48 48s21.49 48 48 48 48-21.49 48-48-21.49-48-48-48zm208-208c-26.51 0-48 21.49-48 48s21.49 48 48 48 48-21.49 48-48-21.49-48-48-48zM96 256c0-26.51-21.49-48-48-48S0 229.49 0 256s21.49 48 48 48 48-21.49 48-48zm12.922 99.078c-26.51 0-48 21.49-48 48s21.49 48 48 48 48-21.49 48-48c0-26.509-21.491-48-48-48zm294.156 0c-26.51 0-48 21.49-48 48s21.49 48 48 48 48-21.49 48-48c0-26.509-21.49-48-48-48zM108.922 60.922c-26.51 0-48 21.49-48 48s21.49 48 48 48 48-21.49 48-48-21.491-48-48-48z"/></symbol><symbol viewBox="0 0 512 512" id="tools" xmlns="http://www.w3.org/2000/svg"><path d="M501.1 395.7L384 278.6c-23.1-23.1-57.6-27.6-85.4-13.9L192 158.1V96L64 0 0 64l96 128h62.1l106.6 106.6c-13.6 27.8-9.2 62.3 13.9 85.4l117.1 117.1c14.6 14.6 38.2 14.6 52.7 0l52.7-52.7c14.5-14.6 14.5-38.2 0-52.7zM331.7 225c28.3 0 54.9 11 74.9 31l19.4 19.4c15.8-6.9 30.8-16.5 43.8-29.5 37.1-37.1 49.7-89.3 37.9-136.7-2.2-9-13.5-12.1-20.1-5.5l-74.4 74.4-67.9-11.3L334 98.9l74.4-74.4c6.6-6.6 3.4-17.9-5.7-20.2-47.4-11.7-99.6.9-136.6 37.9-28.5 28.5-41.9 66.1-41.2 103.6l82.1 82.1c8.1-1.9 16.5-2.9 24.7-2.9zm-103.9 82l-56.7-56.7L18.7 402.8c-25 25-25 65.5 0 90.5s65.5 25 90.5 0l123.6-123.6c-7.6-19.9-9.9-41.6-5-62.7zM64 472c-13.2 0-24-10.8-24-24 0-13.3 10.7-24 24-24s24 10.7 24 24c0 13.2-10.7 24-24 24z"/></symbol><symbol viewBox="0 0 512 512" id="wrench" xmlns="http://www.w3.org/2000/svg"><path d="M507.73 109.1c-2.24-9.03-13.54-12.09-20.12-5.51l-74.36 74.36-67.88-11.31-11.31-67.88 74.36-74.36c6.62-6.62 3.43-17.9-5.66-20.16-47.38-11.74-99.55.91-136.58 37.93-39.64 39.64-50.55 97.1-34.05 147.2L18.74 402.76c-24.99 24.99-24.99 65.51 0 90.5 24.99 24.99 65.51 24.99 90.5 0l213.21-213.21c50.12 16.71 107.47 5.68 147.37-34.22 37.07-37.07 49.7-89.32 37.91-136.73zM64 472c-13.25 0-24-10.75-24-24 0-13.26 10.75-24 24-24s24 10.74 24 24c0 13.25-10.75 24-24 24z"/></symbol><symbol viewBox="0 0 496 512" id="yin-yang" xmlns="http://www.w3.org/2000/svg"><path d="M248 8C111.03 8 0 119.03 0 256s111.03 248 248 248 248-111.03 248-248S384.97 8 248 8zm0 376c-17.67 0-32-14.33-32-32s14.33-32 32-32 32 14.33 32 32-14.33 32-32 32zm0-128c-53.02 0-96 42.98-96 96s42.98 96 96 96c-106.04 0-192-85.96-192-192S141.96 64 248 64c53.02 0 96 42.98 96 96s-42.98 96-96 96zm0-128c-17.67 0-32 14.33-32 32s14.33 32 32 32 32-14.33 32-32-14.33-32-32-32z"/></symbol></svg>